<svg viewBox="0 0 117.48 145.8" width="117.48" height="145.8" xmlns="http://www.w3.org/2000/svg"><path d="m276.92 387.37c-.71 0-1.26 0-1.26-.23a1.91 1.91 0 0 1 .43-.95l3.05-4.52c.2-.29.36-.31.44-.31s.07 0 .31.2l3.24 4.63a1.84 1.84 0 0 1 .44.95c0 .25-.55.23-1.27.23zm6.61 1.38c1 0 1.23.25 2.53 2.24a3.26 3.26 0 0 1 .71 1.72c0 1.56-2.81 1.27-2.81 2 0 .35.52.3 1.23.3 1.15 0 2.61-.1 4.35-.1 2.61 0 3.68.1 5.1.1 1.07 0 1.43.05 1.43-.38 0-.84-2.14.15-3.4-1.66l-10.67-15.62c-.52-.77-.6-.82-.95-.82-.52 0-.71.49-1 .89l-10.72 15.47c-1 1.43-3 1.27-3 1.86 0 .33.63.28 1.18.28 1.15 0 2.3-.1 3.48-.1s2.46.1 3.72.1c.83 0 2.06.18 2.06-.36 0-.69-4.27-.28-4.27-2.12a5.48 5.48 0 0 1 .83-2c.91-1.68 1.74-1.78 2.41-1.78z" fill="#518bc9" transform="translate(-252.16 -308)"/><path d="m323.16 382.43c0 .26.2.85-.48.85s-.9-.54-1.18-.87a12.83 12.83 0 0 0 -10.05-4.68c-5.81 0-9 3.58-9 7 0 3.61 3.17 8.67 10.72 8.67 6.13 0 8.82-3.35 9.85-3.35.2 0 .55.13.55.28 0 1-4.19 4.88-12.61 4.88-11.59 0-13.37-6.54-13.37-8.56 0-4.29 4.07-9.94 14-9.94 4.79 0 7.83 1.56 9 1.56.75 0 .79-.85 1.34-.85.2 0 .48 0 .48.16z" fill="#518bc9" transform="translate(-252.16 -308)"/><path d="m336.25 387.37c-.71 0-1.27 0-1.27-.23a1.84 1.84 0 0 1 .44-.95l3-4.52c.2-.29.36-.31.44-.31s.08 0 .31.2l3.25 4.63a1.82 1.82 0 0 1 .43.95c0 .25-.55.23-1.26.23zm6.6 1.38c1 0 1.23.25 2.53 2.24a3.28 3.28 0 0 1 .72 1.72c0 1.56-2.81 1.27-2.81 2 0 .35.51.3 1.22.3 1.15 0 2.61-.1 4.36-.1 2.6 0 3.67.1 5.1.1 1.07 0 1.42.05 1.42-.38 0-.84-2.14.15-3.4-1.66l-10.68-15.64c-.51-.77-.59-.82-.95-.82s-.71.49-1 .89l-10.71 15.47c-1 1.43-3 1.27-3 1.86 0 .33.63.28 1.19.28 1.14 0 2.29-.1 3.48-.1s2.45.1 3.71.1c.83 0 2.06.18 2.06-.36 0-.69-4.27-.28-4.27-2.12a5.48 5.48 0 0 1 .83-2c.91-1.68 1.74-1.78 2.41-1.78z" fill="#518bc9" transform="translate(-252.16 -308)"/><path d="m27.96 0v43.95l29.88-36.96 3.03 4.15-32.91 49.42h61.37l-28.86-42.23 3.04-4.26 25.52 30.38v-44.45" fill="#518bc9"/><g transform="translate(-252.16 -308)"><path d="m259.8 403.63h2.6v.37h-.14c-.44 0-.62.2-.62.65v3.46c0 .43.14.64.63.64h.13v.34h-2.6v-.34h.12c.43 0 .59-.22.59-.61v-3.49c0-.45-.15-.65-.6-.65h-.11z" fill="#518bc9"/><path d="m266.68 408c0 .53.15.71.8.71v.34h-2v-.34h.05c.49 0 .62-.19.62-.55v-4a1.09 1.09 0 0 0 -.66-.19v-.35h1.69l3.33 3.73v-2.64c0-.63-.13-.74-.78-.74h-.08v-.35h2.11v.38h-.09c-.5 0-.67.11-.67.44v4.67h-.44l-3.91-4.37z" fill="#518bc9"/><path d="m277.18 408.07c0 .46.13.66.71.66h.2v.34h-2.94v-.34h.28c.45 0 .63-.19.63-.66v-4h-1c-.63 0-.72.1-.88 1h-.33l.14-1.63h.26a.66.66 0 0 0 .16.12.76.76 0 0 0 .24 0h3.88c.22 0 .26 0 .39-.14h.26l.15 1.63h-.33c-.16-.92-.26-1-.88-1h-1z" fill="#518bc9"/><path d="m286.19 404.12h-1.79v2h1.32c.45 0 .61-.16.61-.63h.33v1.74h-.33c0-.47-.1-.63-.73-.63h-1.2v1.57c0 .38.06.46.3.46h1.36c.54 0 .79-.16.94-.89h.31l-.09 1.37h-4.92v-.34h.34c.47 0 .63-.2.63-.63v-3.49c0-.47-.14-.63-.71-.63h-.08v-.35h4.52l.08 1.27h-.31c-.1-.63-.21-.82-.58-.82z" fill="#518bc9"/><path d="m292.36 403.88h.42c.8 0 1.46.33 1.46 1.26s-.58 1.26-1.56 1.26h-.32zm0 2.88h.64c.53.48 1 1.4 1.41 1.84s.8.57 1.81.57h.51v-.34a1.42 1.42 0 0 1 -1.08-.52c-.58-.62-.87-1.31-1.41-1.79a1.48 1.48 0 0 0 1.21-1.41 1.38 1.38 0 0 0 -.39-1c-.41-.44-1.06-.61-2.26-.61-.29 0-.88 0-1.34.06l-1 .07v.37h.17c.55 0 .65.24.65.66v3.45c0 .51-.21.64-.71.64h-.13v.34h2.86v-.34h-.3c-.46 0-.64-.19-.64-.64z" fill="#518bc9"/><path d="m300.69 408c0 .53.15.71.8.71v.34h-2v-.34h.05c.5 0 .62-.19.62-.55v-4a1.08 1.08 0 0 0 -.65-.19v-.35h1.68l3.33 3.73v-2.64c0-.63-.12-.74-.78-.74h-.08v-.35h2.11v.38h-.08c-.51 0-.67.11-.67.44v4.67h-.45l-3.91-4.37z" fill="#518bc9"/><path d="m311.46 406.57h-1.46l.69-2zm.18.48.39 1c.16.43.09.67-.41.67h-.29v.34h2.67v-.34c-.43 0-.61-.21-.82-.79l-1.63-4.44h-1.21l.09.26-1.4 4.16c-.2.62-.41.81-.8.81h-.12v.34h2.16v-.34h-.1c-.79 0-.79-.21-.65-.66l.35-1z" fill="#518bc9"/><path d="m319.3 408.07c0 .46.13.66.71.66h.2v.34h-2.94v-.34h.28c.45 0 .62-.19.62-.66v-4h-1c-.63 0-.73.1-.88 1h-.29l.14-1.63h.26a.66.66 0 0 0 .16.12.72.72 0 0 0 .23 0h3.89c.22 0 .26 0 .39-.14h.26l.15 1.63h-.33c-.16-.92-.26-1-.89-1h-1z" fill="#518bc9"/><path d="m324.62 403.63h2.6v.37h-.14c-.44 0-.62.2-.62.65v3.46c0 .43.14.64.64.64h.12v.34h-2.6v-.34h.12c.43 0 .59-.22.59-.61v-3.49c0-.45-.14-.65-.6-.65h-.11z" fill="#518bc9"/><path d="m331.78 406c0-1.32.67-2.18 1.71-2.18 1.24 0 1.89 1.31 1.89 2.72 0 1.21-.53 2.26-1.66 2.26s-1.94-1.11-1.94-2.8zm-1.22.42a2.75 2.75 0 0 0 3 2.75 2.9 2.9 0 0 0 3.07-2.94 2.73 2.73 0 0 0 -2.91-2.78 2.94 2.94 0 0 0 -3.16 2.99z" fill="#518bc9"/><path d="m341.11 408c0 .53.15.71.81.71v.34h-2v-.34h.08c.5 0 .62-.19.62-.55v-4a1.08 1.08 0 0 0 -.62-.16v-.35h1.68l3.33 3.73v-2.64c0-.63-.12-.74-.78-.74h-.08v-.35h2.11v.35h-.08c-.51 0-.67.11-.67.44v4.67h-.51l-3.91-4.37z" fill="#518bc9"/><path d="m351.88 406.57h-1.44l.69-2zm.18.48.39 1c.16.43.09.67-.41.67h-.29v.34h2.66v-.34c-.43 0-.61-.21-.82-.79l-1.59-4.43h-1.21l.09.26-1.4 4.16c-.2.62-.4.81-.8.81h-.12v.34h2.16v-.34h-.1c-.79 0-.79-.21-.65-.66l.35-1z" fill="#518bc9"/><path d="m361.69 409.07h-4.38v-.34h.14c.52 0 .68-.2.68-.63v-3.5c0-.51-.28-.62-.64-.62h-.16v-.35h2.77v.37h-.24c-.42 0-.6.2-.6.61v3.6c0 .32.09.4.41.4h1c.55 0 .71-.29 1.26-1h.33z" fill="#518bc9"/><path d="m260.66 422.09c0 .57.19.78.84.78h.4v.2h-3.36v-.2h.4c.65 0 .84-.21.84-.78v-5.26h-1.86c-.42 0-.61.25-.77 1.18h-.15l.17-1.72h.2a.18.18 0 0 0 .11.13.78.78 0 0 0 .22 0h5.12c.15 0 .31 0 .33-.16h.2l.17 1.72h-.19c-.16-.93-.35-1.18-.78-1.18h-1.85z" fill="#806f59"/><path d="m265.53 422.23c0 .5.13.64.69.64v.2h-2.13v-.2c.58 0 .72-.24.72-.82v-5.05c0-.24 0-.32-.26-.35l-.46-.07v-.18l1.26-.44h.18v3.5a3.51 3.51 0 0 1 1.75-.67c.82 0 1.18.51 1.18 1.58s0 1.57 0 2.14c0 .29.18.41.81.41v.2h-2.3v-.2a.88.88 0 0 0 .6-.17c.19-.2.23-.65.23-2.24 0-1.14-.62-1.29-1-1.29a2.47 2.47 0 0 0 -1.25.5z" fill="#806f59"/><path d="m273.69 420.36v-.24c-.35-.35-.32-1.38-1.76-1.38a2.15 2.15 0 0 0 -2.05 2.27 2 2 0 0 0 1.85 2.19 2.59 2.59 0 0 0 1.9-1.1l-.12-.13a1.66 1.66 0 0 1 -1.35.69 1.73 1.73 0 0 1 -1.62-1.85 3.75 3.75 0 0 1 0-.45zm-3.08-.27c.25-1 .78-1.15 1.13-1.15.51 0 .94.46 1.06 1.15z" fill="#806f59"/><path d="m280.46 419.66h-1.84l.91-2.48zm.19.47.71 1.94a1.16 1.16 0 0 1 .12.43c0 .3-.23.37-.83.37h-.28v.2h2.93v-.2a.84.84 0 0 1 -1-.67l-2.23-5.91h-.92l.09.23-1.94 5.29c-.34.93-.45 1.05-1.15 1.06v.2h2.46v-.2h-.17c-.58 0-.86-.11-.86-.4a3.16 3.16 0 0 1 .21-.67l.62-1.67z" fill="#806f59"/><path d="m283.86 422c.13.64.53 1 1 1a.73.73 0 0 0 .76-.7c0-.22-.06-.36-.34-.65-.76-.75-1.6-.83-1.6-1.71a1.22 1.22 0 0 1 1.36-1.19 2.22 2.22 0 0 1 .85.17v1h-.19a.9.9 0 0 0 -.85-.89.62.62 0 0 0 -.65.6c0 .93 2 1.09 2 2.39a1.25 1.25 0 0 1 -1.32 1.22 1.12 1.12 0 0 1 -.46-.08 1.36 1.36 0 0 0 -.29-.06.21.21 0 0 0 -.18.13h-.16l-.12-1.2z" fill="#806f59"/><path d="m286.91 422 .11 1.2h.16c.06-.09.12-.13.18-.13a1.25 1.25 0 0 1 .29.06 1.21 1.21 0 0 0 .47.08 1.26 1.26 0 0 0 1.32-1.22c0-1.3-2-1.46-2-2.39a.62.62 0 0 1 .65-.6.91.91 0 0 1 .85.89h.18v-1a2.26 2.26 0 0 0 -.85-.17 1.22 1.22 0 0 0 -1.36 1.19c0 .88.84 1 1.59 1.71.29.29.34.43.34.65a.73.73 0 0 1 -.75.7 1.08 1.08 0 0 1 -1-1z" fill="#806f59"/><path d="m291.06 420.63a1.54 1.54 0 0 1 1.35-1.64c.89 0 1.64 1 1.64 2.25a1.55 1.55 0 0 1 -1.34 1.7c-.92 0-1.65-1.02-1.65-2.31zm-.8.36a2.3 2.3 0 1 0 2.3-2.25 2.23 2.23 0 0 0 -2.3 2.26z" fill="#806f59"/><path d="m299.49 422.09a2.11 2.11 0 0 1 -1.89 1.11 1.92 1.92 0 0 1 -1.78-2.06 2.42 2.42 0 0 1 2.44-2.4c.68 0 1.2.26 1.2.6a.31.31 0 0 1 -.31.32c-.52 0-.65-.65-1.25-.65s-1.37.88-1.37 1.9a1.66 1.66 0 0 0 1.5 1.85 1.52 1.52 0 0 0 1.3-.77z" fill="#806f59"/><path d="m301.66 422.26c0 .37.2.61.77.61v.2h-2.37v-.2c.65 0 .89-.22.89-.78v-2.09c0-.42-.06-.47-.33-.52l-.5-.1v-.17l1.38-.48h.16zm-.44-6a.41.41 0 1 1 0 .81.41.41 0 1 1 0-.81z" fill="#806f59"/><path d="m303.84 419.77a.48.48 0 0 1 0-.2.67.67 0 0 1 .66-.53.83.83 0 0 1 .6.31.89.89 0 0 1 .18.68v.85a3.67 3.67 0 0 1 -1 .4c-.68.17-1.26.39-1.26 1a.88.88 0 0 0 1 .88c.29 0 .5-.05 1.24-.65 0 .17.05.65.49.65.18 0 .48-.12 1.05-.59l-.05-.16a.76.76 0 0 1 -.52.24c-.28 0-.28-.2-.28-1.05v-1.42c0-.56 0-.7-.16-.92a1.42 1.42 0 0 0 -1.12-.56 2 2 0 0 0 -1.57 1.23.44.44 0 0 0 0 .15zm1.39 2.59c-.6.41-.73.46-.9.46a.61.61 0 0 1 -.62-.62c0-.44.24-.55.89-.81a5.31 5.31 0 0 0 .63-.3z" fill="#806f59"/><path d="m309.89 418.85-.17.47h-1.35v2.48a.81.81 0 0 0 .7.9c.23 0 .45-.18.65-.54l.17.16a1.31 1.31 0 0 1 -1.16.88 1.12 1.12 0 0 1 -1.07-1.24v-2.64h-.49v-.17a2.4 2.4 0 0 0 1-1.35h.18v1.05z" fill="#806f59"/><path d="m311.75 422.26c0 .37.21.61.77.61v.2h-2.36v-.2c.65 0 .88-.22.88-.78v-2.09c0-.42-.05-.47-.33-.52l-.5-.1v-.17l1.38-.48h.16zm-.43-6a.41.41 0 1 1 0 .81.41.41 0 1 1 0-.81z" fill="#806f59"/><path d="m314 420.63a1.54 1.54 0 0 1 1.35-1.64c.9 0 1.64 1 1.64 2.25a1.55 1.55 0 0 1 -1.34 1.7c-.9 0-1.65-1.02-1.65-2.31zm-.8.36a2.3 2.3 0 1 0 2.3-2.25 2.23 2.23 0 0 0 -2.29 2.26z" fill="#806f59"/><path d="m320 422.14c0 .59.14.73.72.73v.2h-2.14v-.2a.63.63 0 0 0 .71-.67v-2.2c0-.39 0-.47-.32-.52l-.36-.08v-.17l1.22-.44h.17v.83a4.14 4.14 0 0 1 1.83-.84c.73 0 1.14.53 1.14 1.59 0 1.42-.07 1.7-.08 2.11s.16.43.59.43h.24v.2h-2.29v-.2a.85.85 0 0 0 .61-.21c.2-.2.22-1 .22-2.39 0-.85-.41-1.12-.84-1.12a3.29 3.29 0 0 0 -1.42.68z" fill="#806f59"/><path d="m328.06 420.63a1.54 1.54 0 0 1 1.36-1.64c.89 0 1.64 1 1.64 2.25a1.56 1.56 0 0 1 -1.35 1.7c-.91 0-1.65-1.02-1.65-2.31zm-.79.36a2.29 2.29 0 1 0 2.3-2.25 2.23 2.23 0 0 0 -2.3 2.26z" fill="#806f59"/><path d="m335.16 419.32h-1.16v2.92c0 .49.2.63.79.63h.41v.2h-2.63v-.2c.62 0 .72-.14.72-.74v-2.81h-.79v-.18a2.64 2.64 0 0 0 .79-.29 2.8 2.8 0 0 1 .82-2.18 2.17 2.17 0 0 1 1.51-.76c.6 0 1.1.34 1.1.51s-.2.51-.29.51-.54-.53-1.24-.53-1.19.6-1.19 1.6v.81h1.08z" fill="#806f59"/><path d="m345.05 418.19a2.5 2.5 0 0 0 -2.43-1.64 2.83 2.83 0 0 0 -2.89 3.08 3.16 3.16 0 0 0 3 3.34 2.8 2.8 0 0 0 2.59-1.57h.21a7 7 0 0 1 -.69 1.55c-.68-.09-1.15.29-2.4.29a3.45 3.45 0 0 1 -3.72-3.4 3.57 3.57 0 0 1 3.82-3.55 8.37 8.37 0 0 1 2.25.42c.12 0 .17 0 .19-.06h.16l.1 1.54z" fill="#806f59"/><path d="m347.64 422.29c0 .44.16.58.69.58h.41v.2h-2.52v-.2c.54 0 .71-.24.71-.8v-2.46l-.71-.26v-.18l1.21-.42h.21v1.13c.54-.88.66-1.08 1-1.08a.7.7 0 0 1 .36.1c.1 0 .3.08.55.15l-.25.64a1.81 1.81 0 0 1 -.57-.17 1 1 0 0 0 -.37-.1.52.52 0 0 0 -.42.27c-.13.2-.25.38-.34.54z" fill="#806f59"/><path d="m350.52 420.09c.24-1 .78-1.15 1.13-1.15.51 0 .94.46 1.05 1.15zm3.08.27v-.24c-.35-.35-.32-1.38-1.76-1.38a2.14 2.14 0 0 0 -2 2.27 2 2 0 0 0 1.85 2.19 2.56 2.56 0 0 0 1.89-1.1l-.11-.13a1.68 1.68 0 0 1 -1.36.69 1.72 1.72 0 0 1 -1.61-1.85 3.75 3.75 0 0 1 0-.45z" fill="#806f59"/><path d="m357.75 422.21a2.49 2.49 0 0 1 -1.26.53c-.76 0-1.38-.9-1.38-2s.54-1.76 1.37-1.76a1.49 1.49 0 0 1 1.27.8zm0-3.27a3.05 3.05 0 0 0 -1-.2 2.34 2.34 0 0 0 -2.31 2.4 1.9 1.9 0 0 0 1.7 2.06 3.25 3.25 0 0 0 1.65-.76v.76h.13l1.36-.54v-.22l-.26.08c-.29.08-.52 0-.52-.36v-6.25l-1.48.44v.18h.35c.34.05.42.1.42.3z" fill="#806f59"/><path d="m361.05 422.26c0 .37.2.61.77.61v.2h-2.37v-.2c.65 0 .89-.22.89-.78v-2.09c0-.42-.06-.47-.33-.52l-.5-.1v-.17l1.38-.48h.16zm-.44-6a.41.41 0 1 1 0 .81.41.41 0 1 1 0-.81z" fill="#806f59"/><path d="m365.06 418.85-.17.47h-1.35v2.48a.81.81 0 0 0 .7.9c.24 0 .45-.18.65-.54l.17.16a1.3 1.3 0 0 1 -1.16.88 1.12 1.12 0 0 1 -1.07-1.24v-2.64h-.49v-.17a2.36 2.36 0 0 0 1-1.35h.18v1.05z" fill="#806f59"/><path d="m254.36 435c-.59.42-.72.47-.89.47a.62.62 0 0 1 -.63-.63c0-.43.25-.54.9-.81a5.16 5.16 0 0 0 .62-.29zm-1.36-2.58a.48.48 0 0 1 0-.21.67.67 0 0 1 .66-.52.81.81 0 0 1 .59.31.87.87 0 0 1 .18.68v.84a3.59 3.59 0 0 1 -.94.41c-.69.17-1.26.39-1.26 1a.87.87 0 0 0 1 .87c.29 0 .5 0 1.23-.65 0 .17.06.65.49.65.19 0 .48-.11 1.06-.58l-.05-.16a.75.75 0 0 1 -.53.23c-.27 0-.27-.19-.27-1v-1.43c0-.55 0-.69-.16-.91a1.43 1.43 0 0 0 -1.12-.57 2 2 0 0 0 -1.58 1.24.34.34 0 0 0 0 .15z" fill="#806f59"/><path d="m257.7 434.79c0 .59.13.72.71.72v.21h-2.14v-.21a.62.62 0 0 0 .71-.67v-2.23c0-.4 0-.47-.32-.53l-.36-.07v-.17l1.23-.45h.17v.83a4.2 4.2 0 0 1 1.83-.84c.72 0 1.14.54 1.14 1.6 0 1.42-.08 1.69-.09 2.11s.16.42.6.42h.23v.21h-2.29v-.21a.85.85 0 0 0 .61-.2c.2-.2.22-1 .22-2.39 0-.86-.41-1.12-.84-1.12a3.21 3.21 0 0 0 -1.41.68z" fill="#806f59"/><path d="m265.35 434.85a2.52 2.52 0 0 1 -1.26.54c-.76 0-1.38-.9-1.38-2s.54-1.76 1.37-1.76a1.47 1.47 0 0 1 1.27.8zm0-3.27a3.31 3.31 0 0 0 -1-.2 2.35 2.35 0 0 0 -2.31 2.41 1.89 1.89 0 0 0 1.7 2 3.18 3.18 0 0 0 1.65-.75v.75h.13l1.36-.53v-.22l-.25.07c-.3.09-.53 0-.53-.35v-6.25l-1.48.44v.18h.36c.34 0 .41.1.41.3z" fill="#806f59"/><path d="m276.69 430.84a2.49 2.49 0 0 0 -2.43-1.64 2.82 2.82 0 0 0 -2.88 3.08 3.16 3.16 0 0 0 3 3.34 2.83 2.83 0 0 0 2.62-1.62h.2a7.76 7.76 0 0 1 -.68 1.56c-.68-.1-1.15.29-2.41.29a3.44 3.44 0 0 1 -3.71-3.4 3.56 3.56 0 0 1 3.82-3.56 8.18 8.18 0 0 1 2.24.43c.12 0 .18 0 .2-.06h.16l.09 1.54z" fill="#806f59"/><path d="m278.86 433.28a1.54 1.54 0 0 1 1.35-1.64c.9 0 1.64 1 1.64 2.24a1.55 1.55 0 0 1 -1.34 1.71c-.91 0-1.65-1.02-1.65-2.31zm-.8.36a2.3 2.3 0 1 0 2.3-2.26 2.23 2.23 0 0 0 -2.3 2.26z" fill="#806f59"/><path d="m284.79 434.87c0 .44.2.64.62.64h.18v.21h-2.4v-.21c.69 0 .89-.2.89-.71v-5.14c0-.3 0-.4-.33-.43l-.48-.05v-.18l1.36-.44h.16z" fill="#806f59"/><path d="m287.35 428.56h-.16l-1.37.44v.18l.48.05c.3 0 .33.13.33.43v5.14c0 .51-.2.71-.88.71v.21h2.4v-.21h-.15c-.41 0-.61-.2-.61-.64z" fill="#806f59"/><path d="m289.49 432.73c.24-1 .77-1.15 1.12-1.15.52 0 .94.46 1.06 1.15zm3.07.28v-.24c-.35-.35-.32-1.39-1.75-1.39a2.15 2.15 0 0 0 -2.06 2.28 2 2 0 0 0 1.85 2.18 2.58 2.58 0 0 0 1.9-1.09l-.12-.13a1.66 1.66 0 0 1 -1.35.69 1.73 1.73 0 0 1 -1.62-1.85 3.75 3.75 0 0 1 0-.45z" fill="#806f59"/><path d="m297.07 434.74a2.11 2.11 0 0 1 -1.89 1.1 1.91 1.91 0 0 1 -1.79-2 2.43 2.43 0 0 1 2.45-2.41c.67 0 1.19.27 1.19.61a.31.31 0 0 1 -.3.32c-.53 0-.65-.65-1.25-.65s-1.37.87-1.37 1.89a1.66 1.66 0 0 0 1.5 1.86 1.56 1.56 0 0 0 1.3-.77z" fill="#806f59"/><path d="m300.48 431.5-.17.47h-1.31v2.48a.8.8 0 0 0 .7.89c.24 0 .45-.18.65-.53l.17.16a1.3 1.3 0 0 1 -1.16.87 1.12 1.12 0 0 1 -1.07-1.23v-2.61h-.49v-.17a2.39 2.39 0 0 0 1-1.35h.2v1.05z" fill="#806f59"/><path d="m301.45 429.34a.47.47 0 1 0 .46-.41.44.44 0 0 0 -.46.41zm.9 2h-.16l-1.39.48v.18l.5.09c.28.06.33.11.33.53v2.14c0 .56-.23.77-.88.77v.21h2.36v-.21c-.56 0-.76-.23-.76-.6z" fill="#806f59"/><path d="m304.6 433.28a1.54 1.54 0 0 1 1.36-1.64c.89 0 1.64 1 1.64 2.24a1.56 1.56 0 0 1 -1.35 1.71c-.91 0-1.65-1.02-1.65-2.31zm-.79.36a2.23 2.23 0 0 0 2.33 2.2 2.23 2.23 0 1 0 0-4.46 2.24 2.24 0 0 0 -2.33 2.26z" fill="#806f59"/><path d="m310.58 434.79c0 .59.13.72.71.72v.21h-2.14v-.21a.62.62 0 0 0 .71-.67v-2.23c0-.4 0-.47-.32-.53l-.36-.07v-.17l1.23-.45h.17v.83a4.2 4.2 0 0 1 1.83-.84c.72 0 1.14.54 1.14 1.6 0 1.42-.08 1.69-.09 2.11s.16.42.6.42h.23v.21h-2.29v-.21a.85.85 0 0 0 .61-.2c.2-.2.22-1 .22-2.39 0-.86-.41-1.12-.84-1.12a3.21 3.21 0 0 0 -1.41.68z" fill="#806f59"/><path d="m319.51 429.24a4.53 4.53 0 0 1 .73 0c1.42 0 1.75.82 1.75 1.65a1.79 1.79 0 0 1 -1.91 1.86 2.89 2.89 0 0 1 -.57-.08zm0 3.59a4.58 4.58 0 0 0 .9.09c1.58 0 2.58-.79 2.58-2 0-.82-.51-1.88-2.74-1.88h-1.32l-1.34.06v.21h.53c.38 0 .51.17.51.56v5c0 .5-.16.61-.72.61h-.15v.21h2.95v-.21h-.35c-.67 0-.85-.22-.85-.82z" fill="#806f59"/><path d="m325.08 434.94c0 .44.16.57.69.57h.4v.21h-2.52v-.21c.54 0 .71-.23.71-.8v-2.46l-.71-.25v-.18l1.21-.43h.22v1.13c.53-.87.66-1.07 1-1.07a.75.75 0 0 1 .36.09l.56.16-.26.64a1.76 1.76 0 0 1 -.56-.17 1 1 0 0 0 -.38-.11.5.5 0 0 0 -.41.28 3.84 3.84 0 0 0 -.34.53z" fill="#806f59"/><path d="m327.88 433.28a1.54 1.54 0 0 1 1.35-1.64c.9 0 1.64 1 1.64 2.24a1.55 1.55 0 0 1 -1.34 1.71c-.92 0-1.65-1.02-1.65-2.31zm-.8.36a2.3 2.3 0 1 0 2.3-2.26 2.23 2.23 0 0 0 -2.3 2.26z" fill="#806f59"/><path d="m335 432h-1.15v2.91c0 .5.19.63.79.63h.4v.21h-2.63v-.21c.62 0 .73-.13.73-.73v-2.81h-.79v-.18a3.08 3.08 0 0 0 .79-.29 2.8 2.8 0 0 1 .82-2.18 2.13 2.13 0 0 1 1.51-.76c.6 0 1.1.34 1.1.5s-.21.51-.29.51-.54-.52-1.25-.52-1.18.61-1.18 1.64v.81h1.08z" fill="#806f59"/><path d="m336.25 433a3.75 3.75 0 0 0 0 .45 1.72 1.72 0 0 0 1.61 1.85 1.68 1.68 0 0 0 1.36-.69l.11.13a2.56 2.56 0 0 1 -1.89 1.09 2 2 0 0 1 -1.86-2.18 2.15 2.15 0 0 1 2.06-2.28c1.44 0 1.4 1 1.76 1.39v.24zm2.21-.28c-.12-.69-.54-1.15-1-1.15-.35 0-.89.16-1.13 1.15z" fill="#806f59"/><path d="m340.21 434.64c.13.64.53 1 1 1a.73.73 0 0 0 .76-.7c0-.23-.06-.36-.35-.65-.75-.76-1.59-.83-1.59-1.72a1.22 1.22 0 0 1 1.36-1.19 2.43 2.43 0 0 1 .85.17v1h-.18a.9.9 0 0 0 -.85-.88.61.61 0 0 0 -.65.59c0 .94 2 1.1 2 2.4a1.24 1.24 0 0 1 -1.32 1.21 1.46 1.46 0 0 1 -.47-.07 1.18 1.18 0 0 0 -.28-.06.24.24 0 0 0 -.19.12h-.15l-.12-1.19z" fill="#806f59"/><path d="m343.42 434.64a1.09 1.09 0 0 0 1 1 .73.73 0 0 0 .76-.7c0-.23-.05-.36-.34-.65-.76-.76-1.6-.83-1.6-1.72a1.23 1.23 0 0 1 1.37-1.19 2.52 2.52 0 0 1 .85.17v1h-.18a.92.92 0 0 0 -.85-.88.61.61 0 0 0 -.65.59c0 .94 2 1.1 2 2.4a1.25 1.25 0 0 1 -1.32 1.21 1.41 1.41 0 0 1 -.47-.07 1.25 1.25 0 0 0 -.29-.06.23.23 0 0 0 -.18.12h-.16l-.12-1.19z" fill="#806f59"/><path d="m347.92 434.91c0 .37.2.6.76.6v.21h-2.36v-.21c.65 0 .88-.21.88-.77v-2.14c0-.42-.05-.47-.33-.53l-.5-.09v-.17l1.39-.48h.16zm-.44-6a.41.41 0 1 1 0 .81.41.41 0 1 1 0-.81z" fill="#806f59"/><path d="m350.17 433.28a1.54 1.54 0 0 1 1.36-1.64c.89 0 1.64 1 1.64 2.24a1.56 1.56 0 0 1 -1.35 1.71c-.91 0-1.65-1.02-1.65-2.31zm-.79.36a2.23 2.23 0 0 0 2.33 2.2 2.23 2.23 0 1 0 0-4.46 2.23 2.23 0 0 0 -2.33 2.26z" fill="#806f59"/><path d="m356.15 434.79c0 .59.13.72.71.72v.21h-2.14v-.21a.62.62 0 0 0 .71-.67v-2.23c0-.4 0-.47-.32-.53l-.36-.07v-.17l1.23-.45h.17v.83a4.2 4.2 0 0 1 1.83-.84c.72 0 1.14.54 1.14 1.6 0 1.42-.08 1.69-.09 2.11s.16.42.6.42h.23v.21h-2.29v-.21a.85.85 0 0 0 .61-.2c.2-.2.22-1 .22-2.39 0-.86-.41-1.12-.84-1.12a3.21 3.21 0 0 0 -1.41.68z" fill="#806f59"/><path d="m362.58 435c-.6.42-.73.47-.9.47a.62.62 0 0 1 -.63-.63c0-.43.25-.54.9-.81a6.21 6.21 0 0 0 .63-.29zm-1.39-2.58a.48.48 0 0 1 -.05-.21.67.67 0 0 1 .66-.52.83.83 0 0 1 .6.31.87.87 0 0 1 .18.68v.84a3.78 3.78 0 0 1 -.95.41c-.68.17-1.26.39-1.26 1a.88.88 0 0 0 1 .87c.29 0 .5 0 1.24-.65 0 .17 0 .65.49.65.18 0 .48-.11 1.05-.58l-.05-.16a.74.74 0 0 1 -.52.23c-.28 0-.28-.19-.28-1v-1.43c0-.55 0-.69-.16-.91a1.43 1.43 0 0 0 -1.12-.57 2 2 0 0 0 -1.57 1.24.49.49 0 0 0 0 .15z" fill="#806f59"/><path d="m365.87 434.87c0 .44.2.64.61.64h.18v.21h-2.39v-.21c.68 0 .88-.2.88-.71v-5.14c0-.3 0-.4-.33-.43l-.48-.05v-.18l1.37-.44h.16z" fill="#806f59"/><path d="m367.1 434.64.12 1.19h.16a.23.23 0 0 1 .18-.12 1.36 1.36 0 0 1 .29.06 1.35 1.35 0 0 0 .46.07 1.24 1.24 0 0 0 1.32-1.21c0-1.3-2-1.46-2-2.4a.61.61 0 0 1 .65-.59.92.92 0 0 1 .86.88h.18v-1a2.53 2.53 0 0 0 -.86-.17 1.22 1.22 0 0 0 -1.36 1.19c0 .89.84 1 1.6 1.72.29.29.34.42.34.65a.73.73 0 0 1 -.76.7c-.48 0-.88-.36-1-1z" fill="#806f59"/><path d="m356.54 378.74a3.12 3.12 0 1 1 -3.12-3.12 3.12 3.12 0 0 1 3.12 3.12zm-6 0a2.85 2.85 0 1 0 2.84-2.85 2.84 2.84 0 0 0 -2.8 2.85zm2.8-1.92c.8 0 1.32.4 1.32 1s-.32.81-1 1l.92 1.32c.19.29.31.37.53.38v.15h-.81l-1.3-1.78h-.32v1.29c0 .25.11.34.51.34v.15h-1.61v-.15c.33 0 .46-.13.46-.38v-2.74c0-.23-.07-.38-.41-.38v-.16zm-.47 1.84c.55 0 1.08-.23 1.08-.8a.84.84 0 0 0 -.89-.84 1.23 1.23 0 0 0 -.36.06v1.58z" fill="#518bc9"/><path d="m299.93 452.58 4.33-6h1.81l-.07.23a1.59 1.59 0 0 0 -.71.1.51.51 0 0 0 -.25.25 4.49 4.49 0 0 0 -.24.74l-1.33 4.38a3.44 3.44 0 0 0 -.14.59.42.42 0 0 0 .23.4 1.08 1.08 0 0 0 .52.12h.16l-.07.24h-3l.07-.24h.13a1.18 1.18 0 0 0 .55-.11.66.66 0 0 0 .31-.28 6 6 0 0 0 .26-.71l1.49-4.92-4.57 6.26h-.27l-.7-5.74-1.4 3.66a5.12 5.12 0 0 0 -.36 1.19.55.55 0 0 0 .21.5 1.22 1.22 0 0 0 .69.15l-.08.24h-2.36l.07-.24a1.27 1.27 0 0 0 .66-.18 1.3 1.3 0 0 0 .44-.51c.11-.22.28-.62.51-1.21l1.33-3.46a3.24 3.24 0 0 0 .23-.77.42.42 0 0 0 -.12-.33.82.82 0 0 0 -.53-.12h-.3l.07-.23h1.64z" fill="#806f59"/><path d="m307.57 452.34h.24c-.44 1-1 1.47-1.7 1.47a.89.89 0 0 1 -.69-.3 1.17 1.17 0 0 1 -.27-.81 3.76 3.76 0 0 1 .35-1.45 3.94 3.94 0 0 1 1-1.4 1.78 1.78 0 0 1 1.11-.59.52.52 0 0 1 .44.19.69.69 0 0 1 .15.46 1.48 1.48 0 0 1 -.56 1.07 5.89 5.89 0 0 1 -1.68 1 2.73 2.73 0 0 0 -.15.86.77.77 0 0 0 .13.5.45.45 0 0 0 .39.17q.67 0 1.24-1.17zm-1.56-.63a4 4 0 0 0 1.21-.83 1.44 1.44 0 0 0 .54-1 .51.51 0 0 0 -.08-.3.32.32 0 0 0 -.24-.09c-.21 0-.46.2-.74.6a5.28 5.28 0 0 0 -.7 1.62z" fill="#806f59"/><path d="m314.52 452.68h.22a2.68 2.68 0 0 1 -.57.81 1.08 1.08 0 0 1 -.7.32.58.58 0 0 1 -.57-.62 4.43 4.43 0 0 1 .23-1l.43-1.42a3.75 3.75 0 0 0 .19-.8.48.48 0 0 0 -.06-.26.24.24 0 0 0 -.2-.09q-.42 0-1 .75a9.79 9.79 0 0 0 -1.24 2.92l-.14.46h-.62l.85-2.79a4.18 4.18 0 0 0 .22-1 .38.38 0 0 0 -.06-.24.23.23 0 0 0 -.19-.08c-.24 0-.57.26-1 .77a9.14 9.14 0 0 0 -1.24 2.81l-.15.52h-.62l.95-3.13a4.34 4.34 0 0 0 .19-.75.23.23 0 0 0 0-.13.1.1 0 0 0 -.09 0 .6.6 0 0 0 -.36.22 2.55 2.55 0 0 0 -.45.62h-.23a2.77 2.77 0 0 1 .61-.86 1 1 0 0 1 .65-.34.41.41 0 0 1 .32.13.6.6 0 0 1 .11.37 4.32 4.32 0 0 1 -.32 1.28 4.87 4.87 0 0 1 .88-1.27 1.45 1.45 0 0 1 .94-.53.55.55 0 0 1 .45.18.79.79 0 0 1 .15.52 3.19 3.19 0 0 1 -.21 1 4.13 4.13 0 0 1 .89-1.32 1.41 1.41 0 0 1 .86-.41.66.66 0 0 1 .48.2.77.77 0 0 1 .19.55 1.69 1.69 0 0 1 0 .35c0 .09-.09.36-.22.79l-.36 1.17a4.59 4.59 0 0 0 -.23.88.25.25 0 0 0 0 .17.18.18 0 0 0 .15.07.59.59 0 0 0 .39-.21 2.53 2.53 0 0 0 .48-.61z" fill="#806f59"/><path d="m316.68 450.29c.46-.69.91-1 1.34-1a.8.8 0 0 1 .7.37 1.53 1.53 0 0 1 .24.84 3.72 3.72 0 0 1 -.34 1.43 3.21 3.21 0 0 1 -1 1.36 2.06 2.06 0 0 1 -1.27.55 1 1 0 0 1 -.69-.25.87.87 0 0 1 -.28-.68 4.18 4.18 0 0 1 .22-1l1.26-4.16a3.34 3.34 0 0 0 .15-.56.22.22 0 0 0 -.07-.17.73.73 0 0 0 -.34-.05h-.17l.06-.22a3.52 3.52 0 0 0 1.22-.18h.13zm-.77 2.8a.53.53 0 0 0 .11.36.45.45 0 0 0 .33.12c.5 0 1-.42 1.38-1.27a5.14 5.14 0 0 0 .64-2.07.9.9 0 0 0 -.13-.5.37.37 0 0 0 -.33-.19 1.17 1.17 0 0 0 -.78.48 4.76 4.76 0 0 0 -.84 1.6 6.12 6.12 0 0 0 -.38 1.47z" fill="#806f59"/><path d="m322 452.34h.23c-.44 1-1 1.47-1.69 1.47a.89.89 0 0 1 -.7-.3 1.16 1.16 0 0 1 -.26-.81 3.73 3.73 0 0 1 .34-1.45 4.07 4.07 0 0 1 1-1.4 1.83 1.83 0 0 1 1.11-.59.54.54 0 0 1 .45.19.69.69 0 0 1 .15.46 1.48 1.48 0 0 1 -.63 1.09 6 6 0 0 1 -1.69 1 2.71 2.71 0 0 0 -.14.86.77.77 0 0 0 .13.5.42.42 0 0 0 .38.17c.52-.02.94-.41 1.32-1.19zm-1.56-.63a4 4 0 0 0 1.21-.83 1.42 1.42 0 0 0 .53-1 .45.45 0 0 0 -.08-.3.3.3 0 0 0 -.24-.09c-.21 0-.45.2-.74.6a5 5 0 0 0 -.69 1.62z" fill="#806f59"/><path d="m323 450.67h-.23a3.81 3.81 0 0 1 .55-1 .91.91 0 0 1 .65-.41.38.38 0 0 1 .34.18 1.11 1.11 0 0 1 .11.55 5.11 5.11 0 0 1 -.24 1.29s.08-.16.17-.38a6.27 6.27 0 0 1 .68-1.25.76.76 0 0 1 .58-.39.37.37 0 0 1 .29.12.39.39 0 0 1 .11.27.37.37 0 0 1 -.09.26.28.28 0 0 1 -.22.1.43.43 0 0 1 -.29-.17.13.13 0 0 0 -.11-.07c-.17 0-.44.42-.8 1.25a22 22 0 0 0 -.89 2.35l-.11.38h-.62l.83-2.76a4.61 4.61 0 0 0 .24-1.07.47.47 0 0 0 0-.23.11.11 0 0 0 -.11-.07c-.12 0-.26.12-.43.37a2.57 2.57 0 0 0 -.41.68z" fill="#806f59"/></g></svg>